# File created by Blade
# Date/Time:  Tue Jan 27 19:58:39 2015
#---------------------------------------------------------
:version 1.10
:name HOM
:units
  mass 1.0
  length 1.000000
  angle deg
:documentation
     Acclaim Skeleton File
:root
   axis xyz
   order TX TY TZ RX RY RZ
   position 0.000000 0.000000 0.000000
   orientation 0 0 0
:bonedata
   begin
      id 1
      name Spine_dum
      direction 0.000000 1.000000 0.000000
      length 6.116652
      axis 0.0 0.0 0.0 xyz
   end
   begin
      id 2
      name LeftUpLeg_dum
      direction 1.000000 0.000000 0.000000
      length 4.711765
      axis 0.0 0.0 0.0 xyz
   end
   begin
      id 3
      name RightUpLeg_dum
      direction -1.000000 0.000000 0.000000
      length 4.711765
      axis 0.0 0.0 0.0 xyz
   end
   begin
      id 4
      name Spine
      direction 0.000000 1.000000 0.000000
      length 0.000000
      axis 0.0 0.0 0.0 xyz
      dof rx ry rz
   end
   begin
      id 5
      name Spine_dum1
      direction 0.000000 1.000000 0.000000
      length 15.225563
      axis 0.0 0.0 0.0 xyz
   end
   begin
      id 6
      name Spine_dum2
      direction 0.000000 1.000000 0.000000
      length 8.977654
      axis 0.0 0.0 0.0 xyz
   end
   begin
      id 7
      name Spine_dum3
      direction 0.000000 1.000000 0.000000
      length 8.977654
      axis 0.0 0.0 0.0 xyz
   end
   begin
      id 8
      name Head
      direction 0.000000 1.000000 0.000000
      length 4.527550
      axis 0.0 0.0 0.0 xyz
      dof rx ry rz
   end
   begin
      id 9
      name LeftShoulder
      direction 1.000000 0.000000 0.000000
      length 7.110130
      axis 0.0 0.0 -90.0 xyz
      dof rx ry rz
   end
   begin
      id 10
      name LeftArm
      direction 1.000000 0.000000 0.000000
      length 10.398341
      axis 0.0 0.0 -90.0 xyz
      dof rx ry rz
   end
   begin
      id 11
      name LeftForeArm
      direction 1.000000 0.000000 0.000000
      length 8.888997
      axis 0.0 0.0 -90.0 xyz
      dof ry rz rx
   end
   begin
      id 12
      name LeftHand
      direction 0.000000 0.000000 0.000000
      length 0.000000
      axis 0.0 0.0 -90.0 xyz
      dof rx ry rz
   end
   begin
      id 13
      name LeftHand_dum1
      direction 0.000000 0.000000 0.000000
      length 0.000000
      axis 0.0 0.0 -90.0 xyz
   end
   begin
      id 14
      name LeftHand_dum2
      direction 1.000000 0.000000 0.000000
      length 3.937000
      axis 0.0 0.0 -90.0 xyz
   end
   begin
      id 15
      name LeftHandThumb1
      direction 0.000000 0.000000 1.000000
      length 3.937000
      axis 0.0 0.0 -90.0 xyz
      dof rx rz ry
   end
   begin
      id 16
      name RightShoulder
      direction -1.000000 0.000000 0.000000
      length 7.110130
      axis 0.0 0.0 90.0 xyz
      dof rx ry rz
   end
   begin
      id 17
      name RightArm
      direction -1.000000 0.000000 0.000000
      length 10.398341
      axis 0.0 0.0 90.0 xyz
      dof rx ry rz
   end
   begin
      id 18
      name RightForeArm
      direction -1.000000 0.000000 0.000000
      length 8.888997
      axis 0.0 0.0 90.0 xyz
      dof ry rz rx
   end
   begin
      id 19
      name RightHand
      direction 0.000000 0.000000 0.000000
      length 0.000000
      axis 0.0 0.0 90.0 xyz
      dof rx ry rz
   end
   begin
      id 20
      name RightHand_dum1
      direction 0.000000 0.000000 0.000000
      length 0.000000
      axis 0.0 0.0 90.0 xyz
   end
   begin
      id 21
      name RightHand_dum2
      direction -1.000000 0.000000 0.000000
      length 3.937000
      axis 0.0 0.0 90.0 xyz
   end
   begin
      id 22
      name RightHandThumb1
      direction 0.000000 0.000000 1.000000
      length 3.937000
      axis 0.0 0.0 90.0 xyz
      dof rx rz ry
   end
   begin
      id 23
      name LeftUpLeg
      direction 0.000000 -1.000000 0.000000
      length 15.510451
      axis 0.0 0.0 0.0 xyz
      dof rx ry rz
   end
   begin
      id 24
      name LeftLeg
      direction 0.000000 -1.000000 0.000000
      length 14.858061
      axis 0.0 0.0 0.0 xyz
      dof rx ry rz
   end
   begin
      id 25
      name LeftFoot
      direction 0.000000 -0.258819 0.965926
      length 5.128852
      axis 15.0 0.0 0.0 xyz
      dof rx ry rz
   end
   begin
      id 26
      name LeftToeBase
      direction 0.000000 0.000000 1.000000
      length 2.952750
      axis 0.0 0.0 0.0 xyz
      dof rx ry rz
   end
   begin
      id 27
      name RightUpLeg
      direction 0.000000 -1.000000 0.000000
      length 15.510451
      axis 0.0 0.0 0.0 xyz
      dof rx ry rz
   end
   begin
      id 28
      name RightLeg
      direction 0.000000 -1.000000 0.000000
      length 14.858061
      axis 0.0 0.0 0.0 xyz
      dof rx ry rz
   end
   begin
      id 29
      name RightFoot
      direction 0.000000 -0.258819 0.965926
      length 5.128852
      axis 15.0 0.0 0.0 xyz
      dof rx ry rz
   end
   begin
      id 30
      name RightToeBase
      direction 0.000000 0.000000 1.000000
      length 2.952750
      axis 0.0 0.0 0.0 xyz
      dof rx ry rz
   end
:hierarchy
   begin
      root Spine_dum LeftUpLeg_dum RightUpLeg_dum
      Spine_dum Spine
      LeftUpLeg_dum LeftUpLeg
      RightUpLeg_dum RightUpLeg
      Spine Spine_dum1 Spine_dum2 Spine_dum3
      Spine_dum1 Head
      Spine_dum2 LeftShoulder
      Spine_dum3 RightShoulder
      LeftShoulder LeftArm
      LeftArm LeftForeArm
      LeftForeArm LeftHand
      LeftHand LeftHand_dum1 LeftHand_dum2
      LeftHand_dum1 LeftHandThumb1
      RightShoulder RightArm
      RightArm RightForeArm
      RightForeArm RightHand
      RightHand RightHand_dum1 RightHand_dum2
      RightHand_dum1 RightHandThumb1
      LeftUpLeg LeftLeg
      LeftLeg LeftFoot
      LeftFoot LeftToeBase
      RightUpLeg RightLeg
      RightLeg RightFoot
      RightFoot RightToeBase
   end

# File created by Blade
# Date/Time:  Tue Jan 27 19:58:31 2015
# Frame Rate: 120.000 fps
#------------------------------------------------------
:FULLY-SPECIFIED
:DEGREES
1089
root 6.333818 33.118873 2.976404 -16.144009 2.272194 -15.647268
Spine 16.166946 9.245524 13.511184
Head 6.255140 -16.047100 4.587848
LeftShoulder -14.873724 0.734074 30.803706
LeftArm -7.185551 3.720332 -85.960269
LeftForeArm -3.568307 0.000000 121.026767
LeftHand 11.033273 -0.000000 -3.979284
LeftHandThumb1 -26.253704 0.000000 33.147579
RightShoulder -18.908895 -13.375517 -21.908941
RightArm 15.546999 -18.768563 83.341814
RightForeArm -13.141304 -0.000000 16.507768
RightHand 17.306453 -0.000000 8.350825
RightHandThumb1 -24.326973 -0.000000 -32.862282
LeftUpLeg 16.135757 3.512645 8.782294
LeftLeg 10.297912 -0.000000 -0.000000
LeftFoot -22.282604 9.748621 -17.769487
LeftToeBase 22.437036 -0.000000 -0.000000
RightUpLeg -67.166224 2.620381 18.214355
RightLeg 100.113614 -0.000000 -0.000000
RightFoot 26.795299 -24.740320 15.274079
RightToeBase 9.392193 -0.000000 -0.000000
1090
root 6.332899 33.112571 2.977293 -15.981342 2.238645 -15.576912
Spine 16.023563 9.328663 13.448731
Head 6.187775 -16.053031 4.524147
LeftShoulder -14.922469 0.778735 30.760353
LeftArm -7.142062 3.539382 -85.909971
LeftForeArm -3.607519 -0.000000 120.946468
LeftHand 11.056729 -0.000000 -4.019111
LeftHandThumb1 -26.253704 0.000000 33.147579
RightShoulder -18.878381 -13.416395 -21.956356
RightArm 15.505467 -18.731435 83.394985
RightForeArm -13.121970 -0.000000 16.488029
RightHand 17.292185 -0.000000 8.311086
RightHandThumb1 -24.326973 -0.000000 -32.862282
LeftUpLeg 16.032035 3.462862 8.671309
LeftLeg 10.207454 -0.000000 -0.000000
LeftFoot -22.278457 9.830582 -17.804595
LeftToeBase 22.522037 -0.000000 -0.000000
RightUpLeg -67.339617 2.599787 18.520113
RightLeg 102.141173 -0.000000 -0.000000
RightFoot 27.040229 -24.716834 15.311496
RightToeBase 8.429597 -0.000000 -0.000000
1091
root 6.332522 33.106001 2.976020 -15.818780 2.200640 -15.514818
Spine 15.895867 9.365817 13.418275
Head 6.104275 -15.990309 4.387147
LeftShoulder -15.000722 0.730124 30.711294
LeftArm -7.209483 3.338635 -85.841538
LeftForeArm -3.609805 0.000000 120.852187
LeftHand 11.110186 -0.000000 -4.012531
LeftHandThumb1 -26.253704 0.000000 33.147579
RightShoulder -18.820113 -13.386696 -22.066664
RightArm 15.422488 -18.690073 83.490750
RightForeArm -13.146639 -0.000000 16.437457
RightHand 17.360401 0.000000 8.286876
RightHandThumb1 -24.326973 -0.000000 -32.862282
LeftUpLeg 15.936640 3.432472 8.574616
LeftLeg 10.123494 -0.000000 -0.000000
LeftFoot -22.213083 9.935944 -17.599741
LeftToeBase 22.250250 -0.000000 -0.000000
RightUpLeg -67.518533 2.567813 18.823220
RightLeg 104.041410 -0.000000 -0.000000
RightFoot 27.084583 -24.692712 15.952851
RightToeBase 9.229007 -0.000000 -0.000000
1092
root 6.331687 33.101215 2.974285 -15.671791 2.142421 -15.462021
Spine 15.783716 9.461455 13.402115
Head 6.040720 -15.957091 4.302531
LeftShoulder -15.049135 0.729874 30.686870
LeftArm -7.202043 3.131307 -85.813674
LeftForeArm -3.661528 -0.000000 120.736349
LeftHand 11.113727 -0.000000 -4.036507
LeftHandThumb1 -26.253704 0.000000 33.147579
RightShoulder -18.820918 -13.610362 -22.030599
RightArm 15.628468 -18.680267 83.425731
RightForeArm -13.076840 0.000000 16.394362
RightHand 17.366849 -0.000000 8.227554
RightHandThumb1 -24.326973 -0.000000 -32.862282
LeftUpLeg 15.885846 3.477379 8.523924
LeftLeg 9.961580 -0.000000 -0.000000
LeftFoot -22.261856 9.911108 -17.748329
LeftToeBase 22.564345 -0.000000 -0.000000
RightUpLeg -67.706373 2.540236 19.148973
RightLeg 105.806556 -0.000000 -0.000000
RightFoot 27.188531 -24.618055 16.201395
RightToeBase 8.929358 -0.000000 -0.000000
1093
root 6.334417 33.095742 2.968458 -15.509748 2.089851 -15.385150
Spine 15.670455 9.590233 13.371695
Head 5.986892 -15.963440 4.226570
LeftShoulder -15.065909 0.707995 30.675295
LeftArm -7.198816 2.920703 -85.798721
LeftForeArm -3.759875 -0.000000 120.604834
LeftHand 11.160615 -0.000000 -4.124041
LeftHandThumb1 -26.253704 0.000000 33.147579
RightShoulder -18.801743 -13.606291 -22.068113
RightArm 15.559021 -18.681371 83.432905
RightForeArm -12.993588 -0.000000 16.373512
RightHand 17.346409 -0.000000 8.236499
RightHandThumb1 -24.326973 -0.000000 -32.862282
LeftUpLeg 15.816053 3.521134 8.431420
LeftLeg 9.803702 -0.000000 -0.000000
LeftFoot -22.211147 9.950851 -17.725515
LeftToeBase 22.516122 -0.000000 -0.000000
RightUpLeg -67.949720 2.500885 19.434696
RightLeg 107.464751 -0.000000 -0.000000
RightFoot 27.386412 -24.423478 16.167648
RightToeBase 8.655653 -0.000000 -0.000000
1094
root 6.336644 33.090994 2.960367 -15.342545 2.030259 -15.311855
Spine 15.559898 9.696883 13.346550
Head 5.942196 -15.961615 4.148057
LeftShoulder -15.118431 0.701852 30.657301
LeftArm -7.177146 2.753498 -85.770179
LeftForeArm -3.739491 -0.000000 120.458962
LeftHand 11.174558 -0.000000 -4.024629
LeftHandThumb1 -26.253704 0.000000 33.147579
RightShoulder -18.767364 -13.574401 -22.118325
RightArm 15.487396 -18.735329 83.430570
RightForeArm -12.913518 -0.000000 16.343402
RightHand 17.323921 -0.000000 8.192489
RightHandThumb1 -24.326973 -0.000000 -32.862282
LeftUpLeg 15.741287 3.538443 8.331074
LeftLeg 9.639629 -0.000000 -0.000000
LeftFoot -22.166464 10.039066 -17.690138
LeftToeBase 22.568848 -0.000000 -0.000000
RightUpLeg -68.228735 2.508177 19.687190
RightLeg 108.988258 -0.000000 -0.000000
RightFoot 27.450685 -24.370619 16.475457
RightToeBase 10.375843 -0.000000 -0.000000
